<svg xmlns="http://www.w3.org/2000/svg" viewBox="0 0 512 512">
  <rect width="512" height="512" fill="#080808"/>
  <rect x="40" y="140" width="432" height="232" rx="8" fill="#111" stroke="#333" stroke-width="4"/>
  <!-- sprocket holes top -->
  <rect x="60" y="110" width="32" height="48" rx="4" fill="#000" stroke="#333" stroke-width="2"/>
  <rect x="140" y="110" width="32" height="48" rx="4" fill="#000" stroke="#333" stroke-width="2"/>
  <rect x="220" y="110" width="32" height="48" rx="4" fill="#000" stroke="#333" stroke-width="2"/>
  <rect x="300" y="110" width="32" height="48" rx="4" fill="#000" stroke="#333" stroke-width="2"/>
  <rect x="380" y="110" width="32" height="48" rx="4" fill="#000" stroke="#333" stroke-width="2"/>
  <!-- sprocket holes bottom -->
  <rect x="60" y="354" width="32" height="48" rx="4" fill="#000" stroke="#333" stroke-width="2"/>
  <rect x="140" y="354" width="32" height="48" rx="4" fill="#000" stroke="#333" stroke-width="2"/>
  <rect x="220" y="354" width="32" height="48" rx="4" fill="#000" stroke="#333" stroke-width="2"/>
  <rect x="300" y="354" width="32" height="48" rx="4" fill="#000" stroke="#333" stroke-width="2"/>
  <rect x="380" y="354" width="32" height="48" rx="4" fill="#000" stroke="#333" stroke-width="2"/>
  <!-- centre star/reel -->
  <circle cx="256" cy="256" r="72" fill="none" stroke="#f5c518" stroke-width="6"/>
  <circle cx="256" cy="256" r="16" fill="#f5c518"/>
  <line x1="256" y1="184" x2="256" y2="328" stroke="#f5c518" stroke-width="4"/>
  <line x1="184" y1="256" x2="328" y2="256" stroke="#f5c518" stroke-width="4"/>
  <line x1="205" y1="205" x2="307" y2="307" stroke="#f5c518" stroke-width="4"/>
  <line x1="307" y1="205" x2="205" y2="307" stroke="#f5c518" stroke-width="4"/>
</svg>
